<svg xmlns="http://www.w3.org/2000/svg" viewBox="0 0 92.72 39">
  <defs>
    <style>.cls-1{fill:#fff;}</style>
  </defs>
  <title>distrito_joven_web</title>
  <g id="Capa_2" data-name="Capa 2">
    <g id="Capa_1-2" data-name="Capa 1">
      <path class="cls-1" d="M67.64,35.11a7.62,7.62,0,0,1-4.07,1.21H63.5a7.62,7.62,0,0,1-4.07-1.21,8.08,8.08,0,0,1-2-2c-.18-.25-.36-.52-.53-.8l-2.32,1.4a11.34,11.34,0,0,0,3.46,3.68,10.46,10.46,0,0,0,10.9,0,11.33,11.33,0,0,0,3.46-3.68l-2.32-1.4c-.17.28-.35.55-.53.8a8,8,0,0,1-2,2"/>
      <path class="cls-1" d="M3,32.57a5.7,5.7,0,0,0,1.38,1.34,2.56,2.56,0,0,0,1.4.42,2,2,0,0,0,1.91-1,8,8,0,0,0,.55-3.59V0h4.58V31.39q0,3.9-1.59,5.74T6.21,39a7.25,7.25,0,0,1-3.37-.78A9.17,9.17,0,0,1,0,35.78Z"/>
      <path class="cls-1" d="M30.94,28.58A6.74,6.74,0,0,0,29.34,24a5,5,0,0,0-7.83,0,6.72,6.72,0,0,0-1.61,4.55,6.71,6.71,0,0,0,1.61,4.55,5,5,0,0,0,7.82,0,6.71,6.71,0,0,0,1.61-4.55m-15.36,0a10.77,10.77,0,0,1,.74-4,10.34,10.34,0,0,1,2.14-3.35A9.6,9.6,0,0,1,21.63,19a9.6,9.6,0,0,1,7.55,0,9.66,9.66,0,0,1,3.19,2.28,10.3,10.3,0,0,1,2.15,3.36,10.64,10.64,0,0,1,.73,3.93,11,11,0,0,1-.72,4,9.87,9.87,0,0,1-2.12,3.32,10.2,10.2,0,0,1-3.26,2.31,9.37,9.37,0,0,1-7.5,0,9.66,9.66,0,0,1-3.19-2.27,10.57,10.57,0,0,1-2.15-3.38,10.81,10.81,0,0,1-.73-4"/>
      <polygon class="cls-1" points="44.52 38.97 35.05 18.27 39.57 18.27 44.52 30.89 49.52 18.27 54.02 18.27 44.52 38.97"/>
      <path class="cls-1" d="M74.84,39V18.27h4v4a8.26,8.26,0,0,1,3-3A8.55,8.55,0,0,1,86,18.3a8,8,0,0,1,3.53.71,5.24,5.24,0,0,1,2.28,2.1A6,6,0,0,1,92.5,23a23.06,23.06,0,0,1,.22,3.84V39H88.44V28.72q0-3.95-.89-5.25a3.56,3.56,0,0,0-3.16-1.3,5.79,5.79,0,0,0-2.65.59,4.51,4.51,0,0,0-1.83,1.67,4.77,4.77,0,0,0-.65,1.85,24.45,24.45,0,0,0-.19,3.6V39Z"/>
      <path class="cls-1" d="M17.94,13.42h2a9.55,9.55,0,0,0,2.46-.24,3.5,3.5,0,0,0,1.43-.79A4.75,4.75,0,0,0,25,10.5a7.75,7.75,0,0,0,.41-2.63A7.75,7.75,0,0,0,25,5.23a4.74,4.74,0,0,0-1.24-1.89,3.56,3.56,0,0,0-1.47-.79,11,11,0,0,0-2.69-.24H17.94Zm-2.36,2.31V0h3.19a19.25,19.25,0,0,1,4.37.34,5.71,5.71,0,0,1,2.22,1.13,6.52,6.52,0,0,1,1.91,2.67,10,10,0,0,1,.65,3.72,9.84,9.84,0,0,1-.65,3.7,6.62,6.62,0,0,1-1.91,2.66,5.73,5.73,0,0,1-2.17,1.13,15.39,15.39,0,0,1-3.79.34H15.58Z"/>
      <rect class="cls-1" x="29.7" y="0.02" width="2.36" height="15.7"/>
      <path class="cls-1" d="M33.33,12.32l1.79-.9a2.71,2.71,0,0,0,.94,1.53,2.77,2.77,0,0,0,1.74.53,2.13,2.13,0,0,0,1.59-.6A2.2,2.2,0,0,0,40,11.26q0-1.32-2-2.35l-.43-.23a9.7,9.7,0,0,1-3-2.18,3.75,3.75,0,0,1-.76-2.38,4,4,0,0,1,1.15-3,4.09,4.09,0,0,1,3-1.13,4.77,4.77,0,0,1,2.56.64A3.31,3.31,0,0,1,41.86,2.5l-1.76,1a3.07,3.07,0,0,0-.91-1,2.24,2.24,0,0,0-2.58.18A1.81,1.81,0,0,0,36.08,4q0,1.35,2.34,2.51l.28.14a8.31,8.31,0,0,1,2.81,2,3.81,3.81,0,0,1,.77,2.43A4.58,4.58,0,0,1,41,14.45a4.49,4.49,0,0,1-3.34,1.25,4.59,4.59,0,0,1-2.9-.88,4.15,4.15,0,0,1-1.48-2.51"/>
      <polygon class="cls-1" points="49.36 2.19 49.36 15.72 47 15.72 47 2.19 43.14 2.19 43.14 0.02 53.2 0.02 53.2 2.19 49.36 2.19"/>
      <path class="cls-1" d="M56.4,6.72h.43a4.47,4.47,0,0,0,2.49-.47,2,2,0,0,0,.62-1.67,2.21,2.21,0,0,0-.66-1.83,4.06,4.06,0,0,0-2.45-.53H56.4Zm-.15,2v7H54V0h3.3a9.59,9.59,0,0,1,2.25.2A3.39,3.39,0,0,1,60.94.9a3.72,3.72,0,0,1,1,1.47,5.19,5.19,0,0,1,.37,2,4.65,4.65,0,0,1-.84,3A3.63,3.63,0,0,1,59,8.58l5,7.14H61.35l-4.83-7Z"/>
      <rect class="cls-1" x="64.49" y="0.02" width="2.36" height="15.7"/>
      <polygon class="cls-1" points="73.96 2.19 73.96 15.72 71.6 15.72 71.6 2.19 67.74 2.19 67.74 0.02 77.81 0.02 77.81 2.19 73.96 2.19"/>
      <path class="cls-1" d="M90.12,7.91a6.1,6.1,0,0,0-.39-2.16,5.63,5.63,0,0,0-1.11-1.83A4.91,4.91,0,0,0,87,2.7a4.73,4.73,0,0,0-3.9,0,4.93,4.93,0,0,0-1.65,1.22,5.44,5.44,0,0,0-1.1,1.82A6.22,6.22,0,0,0,80,7.91a6.13,6.13,0,0,0,.38,2.15,5.59,5.59,0,0,0,1.1,1.81,4.94,4.94,0,0,0,1.64,1.22,4.63,4.63,0,0,0,2,.42A4.55,4.55,0,0,0,87,13.09a5.1,5.1,0,0,0,1.65-1.22,5.66,5.66,0,0,0,1.11-1.82,6.05,6.05,0,0,0,.39-2.15m2.35,0a8.29,8.29,0,0,1-.55,3,7.75,7.75,0,0,1-1.62,2.54,7.59,7.59,0,0,1-2.42,1.71,7.08,7.08,0,0,1-5.69,0,7.32,7.32,0,0,1-2.41-1.71,7.65,7.65,0,0,1-1.61-2.53,8.29,8.29,0,0,1-.55-3,8.36,8.36,0,0,1,.55-3,7.76,7.76,0,0,1,1.61-2.55A7.36,7.36,0,0,1,82.19.62a7.24,7.24,0,0,1,5.7,0,7.39,7.39,0,0,1,2.41,1.7,8,8,0,0,1,1.62,2.57,8.29,8.29,0,0,1,.55,3"/>
      <path class="cls-1" d="M60.3,23a4.78,4.78,0,0,1,3.24-1.06A4.88,4.88,0,0,1,66.9,23a4.81,4.81,0,0,1,1.47,3.16H58.59A5.78,5.78,0,0,1,60.3,23m12.3,6.17v-.83q0-4.81-2.41-7.47a8.61,8.61,0,0,0-6.73-2.67,8.68,8.68,0,0,0-6.76,2.92,10.74,10.74,0,0,0-2.63,7.46c0,.2,0,.39,0,.59Z"/>
      <path class="cls-1" d="M62.16,31.68a1.08,1.08,0,1,1-1.08-1.16,1.12,1.12,0,0,1,1.08,1.16"/>
      <path class="cls-1" d="M67.06,31.68A1.08,1.08,0,1,1,66,30.51a1.12,1.12,0,0,1,1.07,1.16"/>
    </g>
  </g>
</svg>